<svg width="60" height="58" viewBox="0 0 60 58" fill="none" xmlns="http://www.w3.org/2000/svg">
<g id="Adobe_Illustrator_CC_icon" clip-path="url(#clip0_13_775)">
<path id="Vector" d="M10.625 0H49.375C55.25 0 60 4.7094 60 10.5342V47.4658C60 53.2906 55.25 58 49.375 58H10.625C4.75 58 0 53.2906 0 47.4658V10.5342C0 4.7094 4.75 0 10.625 0Z" fill="#330000"/>
<path id="Vector_2" d="M29 34.7008H19.7L17.8 40.5256C17.75 40.7486 17.55 40.8973 17.325 40.8726H12.625C12.35 40.8726 12.275 40.7238 12.35 40.4264L20.4 17.4495C20.475 17.2016 20.55 16.929 20.65 16.6315C20.75 16.111 20.8 15.5657 20.8 15.0204C20.775 14.8965 20.875 14.7726 21 14.7478H27.475C27.675 14.7478 27.775 14.8221 27.8 14.9461L36.925 40.476C37 40.7486 36.925 40.8726 36.675 40.8726H31.45C31.275 40.8973 31.1 40.7734 31.05 40.5999L29 34.7008ZM21.15 29.6691H27.5C27.35 29.1486 27.15 28.529 26.925 27.8845C26.7 27.2153 26.475 26.4965 26.25 25.7529C26 24.9845 25.775 24.2409 25.525 23.4726C25.275 22.7042 25.05 21.9854 24.85 21.2666C24.65 20.5726 24.475 19.9281 24.3 19.3332H24.25C24.025 20.3991 23.75 21.4649 23.4 22.5307C23.025 23.7204 22.65 24.9597 22.25 26.1991C21.9 27.4632 21.525 28.6281 21.15 29.6691ZM42.5 19.0854C41.675 19.1102 40.875 18.7879 40.275 18.2179C39.7 17.5982 39.4 16.7803 39.425 15.9375C39.4 15.0948 39.725 14.3016 40.325 13.7315C40.925 13.1614 41.725 12.864 42.55 12.864C43.525 12.864 44.275 13.1614 44.825 13.7315C45.375 14.3264 45.675 15.1196 45.65 15.9375C45.675 16.7803 45.375 17.5982 44.775 18.2179C44.2 18.8127 43.35 19.135 42.5 19.0854ZM39.7 40.5999V21.5144C39.7 21.2666 39.8 21.1674 40.025 21.1674H44.975C45.2 21.1674 45.3 21.2914 45.3 21.5144V40.5999C45.3 40.8726 45.2 40.9965 44.975 40.9965H40.075C39.825 40.9965 39.7 40.8478 39.7 40.5999Z" fill="#FF9A00"/>
</g>
<defs>
<clipPath id="clip0_13_775">
<rect width="60" height="58" fill="white"/>
</clipPath>
</defs>
</svg>
