<svg width="60" height="58" viewBox="0 0 60 58" fill="none" xmlns="http://www.w3.org/2000/svg">
<g id="Adobe_InDesign_CC_icon" clip-path="url(#clip0_13_769)">
<path id="Vector" d="M10.625 0H49.375C55.25 0 60 4.7094 60 10.5342V47.4658C60 53.2906 55.25 58 49.375 58H10.625C4.75 58 0 53.2906 0 47.4658V10.5342C0 4.7094 4.75 0 10.625 0Z" fill="#49021F"/>
<g id="vlpa">
<g id="vlpb">
<path id="Vector_2" d="M21.8 15.169V40.6989C21.8 40.9716 21.675 41.0955 21.45 41.0955H16.55C16.325 41.0955 16.225 40.9716 16.225 40.6989V15.169C16.225 14.9459 16.35 14.8468 16.575 14.8468H21.45C21.6 14.822 21.75 14.9211 21.775 15.0946C21.8 15.1194 21.8 15.1442 21.8 15.169Z" fill="#FF3366"/>
<path id="Vector_3" d="M36.25 41.3931C34.4 41.4178 32.55 41.046 30.875 40.2777C29.3 39.5589 28 38.3691 27.1 36.9067C26.175 35.3948 25.725 33.511 25.725 31.2554C25.7 29.4213 26.175 27.6119 27.1 26.0255C28.05 24.4144 29.425 23.076 31.075 22.1837C32.825 21.217 34.925 20.746 37.4 20.746C37.525 20.746 37.7 20.746 37.925 20.7708C38.15 20.7956 38.4 20.7956 38.7 20.8204V12.9879C38.7 12.8144 38.775 12.7153 38.95 12.7153H44.025C44.15 12.6905 44.25 12.7896 44.275 12.8888V12.9384V36.5349C44.275 36.9811 44.3 37.4768 44.325 38.0221C44.375 38.5426 44.4 39.0384 44.425 39.4597C44.425 39.6332 44.35 39.7819 44.175 39.8563C42.875 40.4016 41.5 40.7982 40.1 41.046C38.85 41.2691 37.55 41.3931 36.25 41.3931ZM38.7 36.4358V25.5298C38.475 25.4802 38.25 25.4307 38.025 25.4059C37.75 25.3811 37.475 25.3563 37.2 25.3563C36.225 25.3563 35.25 25.5546 34.375 26.0007C33.525 26.4221 32.8 27.0418 32.25 27.8349C31.7 28.6281 31.425 29.6939 31.425 30.9828C31.4 31.8503 31.55 32.7178 31.85 33.5358C32.1 34.205 32.475 34.7999 32.975 35.2956C33.45 35.7418 34.025 36.0888 34.675 36.2871C35.35 36.5101 36.05 36.6093 36.75 36.6093C37.125 36.6093 37.475 36.5845 37.8 36.5597C38.125 36.5845 38.425 36.5349 38.7 36.4358Z" fill="#FF3366"/>
</g>
</g>
</g>
<defs>
<clipPath id="clip0_13_769">
<rect width="60" height="58" fill="white"/>
</clipPath>
</defs>
</svg>
