<svg width="42" height="62" viewBox="0 0 42 62" fill="none" xmlns="http://www.w3.org/2000/svg">
<g id="figma_symbol.svg" clip-path="url(#clip0_13_711)">
<path id="Vector" d="M21 31.0001C21 25.3514 25.6531 20.772 31.3931 20.772C37.133 20.772 41.7862 25.3514 41.7862 31.0001C41.7862 36.649 37.133 41.2282 31.3931 41.2282C25.6531 41.2282 21 36.649 21 31.0001Z" fill="#1ABCFE"/>
<path id="Vector_2" d="M0.213806 51.4562C0.213806 45.8074 4.86695 41.228 10.6069 41.228H21V51.4562C21 57.1051 16.3469 61.6843 10.6069 61.6843C4.86695 61.6843 0.213806 57.1051 0.213806 51.4562Z" fill="#0ACF83"/>
<path id="Vector_3" d="M21 0.315674V20.7719H31.3931C37.1331 20.7719 41.7862 16.1926 41.7862 10.5438C41.7862 4.89497 37.1331 0.315674 31.3931 0.315674H21Z" fill="#FF7262"/>
<path id="Vector_4" d="M0.213806 10.5438C0.213806 16.1926 4.86695 20.7719 10.6069 20.7719H21V0.315674H10.6069C4.86695 0.315674 0.213806 4.89496 0.213806 10.5438Z" fill="#F24E1E"/>
<path id="Vector_5" d="M0.213806 31.0001C0.213806 36.649 4.86695 41.2282 10.6069 41.2282H21V20.772H10.6069C4.86695 20.772 0.213806 25.3514 0.213806 31.0001Z" fill="#A259FF"/>
</g>
<defs>
<clipPath id="clip0_13_711">
<rect width="42" height="62" fill="white"/>
</clipPath>
</defs>
</svg>
