<svg width="58" height="52" viewBox="0 0 58 52" fill="none" xmlns="http://www.w3.org/2000/svg">
<g id="sketch_logo.svg" clip-path="url(#clip0_13_728)">
<g id="Page-1">
<g id="sketch-symbol">
<path id="Path" d="M12.629 1.7112L28.9415 0L45.254 1.7112L57.8831 18.5332L28.9415 51.9741L0 18.5332L12.629 1.7112Z" fill="#FDB300"/>
<g id="Group">
<path id="Path_2" d="M11.7228 18.5332L28.9416 51.9742L0 18.5332H11.7228Z" fill="#EA6C00"/>
<path id="Path_3" d="M46.1603 18.5332L28.9415 51.9742L57.883 18.5332H46.1603Z" fill="#EA6C00"/>
<path id="Path_4" d="M11.7228 18.5332H46.1604L28.9416 51.9742L11.7228 18.5332Z" fill="#FDAD00"/>
</g>
<g id="Group_2">
<path id="Path_5" d="M28.9416 0L12.629 1.71118L11.7228 18.5332L28.9416 0Z" fill="#FDD231"/>
<path id="Path_6" d="M28.9415 0L45.254 1.71118L46.1602 18.5332L28.9415 0Z" fill="#FDD231"/>
<path id="Path_7" d="M57.8831 18.5332L45.254 1.71118L46.1603 18.5332H57.8831Z" fill="#FDAD00"/>
<path id="Path_8" d="M0 18.5332L12.629 1.71118L11.7228 18.5332H0Z" fill="#FDAD00"/>
<path id="Path_9" d="M28.9416 0L11.7228 18.5332H46.1604L28.9416 0Z" fill="#FEEEB7"/>
</g>
</g>
</g>
</g>
<defs>
<clipPath id="clip0_13_728">
<rect width="58" height="52" fill="white"/>
</clipPath>
</defs>
</svg>
