<svg width="44" height="44" viewBox="0 0 44 44" fill="none" xmlns="http://www.w3.org/2000/svg">
<g id="pajamas:work">
<path id="Vector" fill-rule="evenodd" clip-rule="evenodd" d="M16.5 2.75C15.2236 2.75 13.9996 3.25703 13.097 4.15955C12.1945 5.06207 11.6875 6.28615 11.6875 7.5625V11H8.25C6.79131 11 5.39236 11.5795 4.36091 12.6109C3.32946 13.6424 2.75 15.0413 2.75 16.5V35.75C2.75 37.2087 3.32946 38.6076 4.36091 39.6391C5.39236 40.6705 6.79131 41.25 8.25 41.25H35.75C37.2087 41.25 38.6076 40.6705 39.6391 39.6391C40.6705 38.6076 41.25 37.2087 41.25 35.75V16.5C41.25 15.0413 40.6705 13.6424 39.6391 12.6109C38.6076 11.5795 37.2087 11 35.75 11H32.3125V7.5625C32.3125 6.28615 31.8055 5.06207 30.903 4.15955C30.0004 3.25703 28.7764 2.75 27.5 2.75H16.5ZM28.1875 11V7.5625C28.1875 7.38016 28.1151 7.2053 27.9861 7.07636C27.8572 6.94743 27.6823 6.875 27.5 6.875H16.5C16.3177 6.875 16.1428 6.94743 16.0139 7.07636C15.8849 7.2053 15.8125 7.38016 15.8125 7.5625V11H28.1875ZM8.25 15.125H35.75C36.1147 15.125 36.4644 15.2699 36.7223 15.5277C36.9801 15.7856 37.125 16.1353 37.125 16.5V19.25H6.875V16.5C6.875 16.1353 7.01987 15.7856 7.27773 15.5277C7.53559 15.2699 7.88533 15.125 8.25 15.125ZM6.875 23.375V35.75C6.875 36.1147 7.01987 36.4644 7.27773 36.7223C7.53559 36.9801 7.88533 37.125 8.25 37.125H35.75C36.1147 37.125 36.4644 36.9801 36.7223 36.7223C36.9801 36.4644 37.125 36.1147 37.125 35.75V23.375H24.75V27.5H19.25V23.375H6.875Z" fill="#344C36"/>
</g>
</svg>
