<svg width="50" height="50" viewBox="0 0 50 50" fill="none" xmlns="http://www.w3.org/2000/svg">
<g id="bezier-tool">
<path id="Vector" d="M46.875 17.9688V21.0938C46.875 21.525 46.525 21.875 46.0938 21.875H42.9688C42.5375 21.875 42.1875 21.525 42.1875 21.0938V17.9688C42.1875 17.682 42.3492 17.4422 42.5797 17.3062C39.393 11.7477 33.6828 7.94922 27.3438 7.18672V7.8125C27.3438 8.24375 26.9937 8.59375 26.5625 8.59375H23.4375C23.0063 8.59375 22.6562 8.24375 22.6562 7.8125V7.18672C16.3172 7.94922 10.607 11.7477 7.42031 17.3062C7.65078 17.4422 7.8125 17.682 7.8125 17.9688V21.0938C7.8125 21.525 7.4625 21.875 7.03125 21.875H3.90625C3.475 21.875 3.125 21.525 3.125 21.0938V17.9688C3.125 17.5375 3.475 17.1875 3.90625 17.1875H5.70937C8.16328 12.5445 12.2156 8.95234 16.9945 7.03125H10.7937C9.91953 9.47578 6.27422 8.87422 6.25 6.25C6.27422 3.62578 9.91875 3.02422 10.7937 5.46875H22.6562V4.6875C22.6562 4.25625 23.0063 3.90625 23.4375 3.90625H26.5625C26.9937 3.90625 27.3438 4.25625 27.3438 4.6875V5.46875H39.2062C40.0805 3.02422 43.7258 3.62578 43.75 6.25C43.7258 8.87422 40.0812 9.47656 39.2062 7.03125H33.0055C37.7844 8.95234 41.8367 12.5445 44.2906 17.1875H46.0938C46.525 17.1875 46.875 17.5375 46.875 17.9688ZM37.3953 30.0789L26.3734 10.9742C26.2109 10.693 25.7805 10.8078 25.7805 11.1328V28.2687C27.9781 29.0211 27.8008 32.3172 25.4406 32.7719C22.5656 33.2453 21.5594 29.2437 24.218 28.2687V11.1328C24.218 10.8078 23.7875 10.693 23.625 10.9742L12.6031 30.0789C12.4766 30.2984 12.4641 30.5656 12.5703 30.7961L16.4461 39.1937C16.6797 39.1148 16.9258 39.0625 17.1859 39.0625H32.8109C33.0711 39.0625 33.3172 39.1148 33.5508 39.1937L37.4266 30.7961C37.5328 30.5656 37.5203 30.2984 37.3937 30.0789H37.3953ZM32.8125 39.8438H17.1875C16.3258 39.8438 15.625 40.5445 15.625 41.4062V44.5312C15.625 45.393 16.3258 46.0938 17.1875 46.0938H32.8125C33.6742 46.0938 34.375 45.393 34.375 44.5312V41.4062C34.375 40.5445 33.6742 39.8438 32.8125 39.8438Z" fill="#344C36"/>
</g>
</svg>
