<svg width="46" height="44" viewBox="0 0 46 44" fill="none" xmlns="http://www.w3.org/2000/svg">
<g id="design">
<path id="Vector" d="M43.7719 1.23749H2.22812C1.00625 1.23749 0 2.19999 0 3.43749V31.625C0 32.7937 1.00625 33.7562 2.22812 33.7562H16.675V38.9812L13.8719 40.2187C13.7281 40.2875 13.6562 40.425 13.6562 40.4937V42.2812C13.6562 42.4875 13.8 42.625 14.0156 42.625H31.9125C32.1281 42.625 32.2719 42.4875 32.2719 42.2812V40.4937C32.2719 40.3562 32.2 40.2187 32.0562 40.2187L29.2531 38.9812V33.7562H43.7C44.9219 33.7562 45.9281 32.7937 45.9281 31.625V3.43749C46 2.19999 44.9937 1.23749 43.7719 1.23749ZM31.625 40.8375V42.075H14.375V40.8375L17.1062 39.6H28.8219L31.625 40.8375ZM17.3937 38.9125V33.825H28.6062V38.9125H17.3937ZM45.2812 31.625C45.2812 32.45 44.5625 33.0687 43.7719 33.0687H2.22812C1.36562 33.0687 0.71875 32.3812 0.71875 31.625V28.1187H45.2812V31.625ZM45.2812 27.5H0.71875V3.43749C0.71875 2.61249 1.4375 1.99374 2.22812 1.99374H43.7C44.5625 1.99374 45.2094 2.68124 45.2094 3.43749V27.5H45.2812Z" fill="#344C36"/>
<path id="Vector_2" d="M23.4312 32.3812C24.4375 32.3812 25.3 31.5563 25.3 30.5938C25.3 29.6313 24.4375 28.875 23.4312 28.875C22.425 28.875 21.5625 29.7 21.5625 30.6625C21.5625 31.625 22.425 32.3812 23.4312 32.3812ZM23.4312 29.5625C24.0781 29.5625 24.5813 30.0437 24.5813 30.6625C24.5813 31.2812 24.0781 31.7625 23.4312 31.7625C22.7844 31.7625 22.2812 31.2812 22.2812 30.6625C22.2812 30.0437 22.7844 29.5625 23.4312 29.5625Z" fill="#344C36"/>
<path id="Vector_3" d="M39.8188 4.53748H6.18127C5.96565 4.53748 5.8219 4.67498 5.8219 4.88123C5.8219 5.08748 5.96565 5.22498 6.18127 5.22498H39.7469C39.9625 5.22498 40.1063 5.08748 40.1063 4.88123C40.1063 4.67498 39.9625 4.53748 39.8188 4.53748Z" fill="#344C36"/>
<path id="Vector_4" d="M39.8188 24.6125H6.18127C5.96565 24.6125 5.8219 24.75 5.8219 24.9562C5.8219 25.1625 5.96565 25.3 6.18127 25.3H39.7469C39.9625 25.3 40.1063 25.1625 40.1063 24.9562C40.1063 24.75 39.9625 24.6125 39.8188 24.6125Z" fill="#344C36"/>
<path id="Vector_5" d="M6.68439 10.5187C6.46876 10.5187 6.32501 10.6562 6.32501 10.8625V16.225C6.32501 17.8062 7.61876 19.0437 9.27189 19.0437C10.925 19.0437 12.2188 17.8062 12.2188 16.225V10.8625C12.2188 10.6562 12.075 10.5187 11.8594 10.5187C11.6438 10.5187 11.5 10.6562 11.5 10.8625V16.225C11.5 17.3937 10.4938 18.3562 9.27189 18.3562C8.05001 18.3562 7.04376 17.3937 7.04376 16.225V10.8625C7.04376 10.6562 6.90001 10.5187 6.68439 10.5187Z" fill="#344C36"/>
<path id="Vector_6" d="M15.0938 19.0438C15.1656 19.0438 15.1656 19.1125 15.2375 19.1125C15.3813 19.1125 15.525 19.0438 15.525 18.9063L17.3219 15.5375L19.0469 18.9063C19.1188 19.0438 19.2625 19.1125 19.3344 19.1125C19.4063 19.1125 19.4063 19.1125 19.4781 19.0438C19.6219 18.975 19.6938 18.7688 19.6219 18.5625L17.6813 14.7125L19.6938 10.9313C19.7656 10.7938 19.6938 10.5875 19.55 10.45C19.4063 10.3813 19.1906 10.45 19.0469 10.5875L17.25 13.9563L15.525 10.5875C15.4531 10.45 15.2375 10.3813 15.0219 10.45C14.8781 10.5188 14.8063 10.725 14.8781 10.9313L16.8188 14.7813L14.8063 18.5625C14.8063 18.7688 14.8781 18.975 15.0938 19.0438Z" fill="#344C36"/>
<path id="Vector_7" d="M30.7625 10.5187C30.5469 10.5187 30.4031 10.6562 30.4031 10.8625V16.225C30.4031 17.8062 31.6969 19.0437 33.35 19.0437C35.0031 19.0437 36.2969 17.8062 36.2969 16.225V10.8625C36.2969 10.6562 36.1531 10.5187 35.9375 10.5187C35.7219 10.5187 35.5781 10.6562 35.5781 10.8625V16.225C35.5781 17.3937 34.5719 18.3562 33.35 18.3562C32.1281 18.3562 31.1219 17.3937 31.1219 16.225V10.8625C31.1219 10.6562 30.9063 10.5187 30.7625 10.5187Z" fill="#344C36"/>
<path id="Vector_8" d="M23 21.9312C23.1437 21.9312 23.2875 21.8625 23.3594 21.725L28.6062 8.24999C28.6781 8.04374 28.6062 7.90624 28.3906 7.83749C28.175 7.76874 28.0312 7.83749 27.9594 8.04374L22.6406 21.5187C22.5687 21.725 22.6406 21.8625 22.8562 21.9312H23Z" fill="#344C36"/>
<path id="Vector_9" d="M39.7469 18.7687V10.8625C39.7469 10.6562 39.6031 10.5187 39.3875 10.5187C39.1719 10.5187 39.0281 10.6562 39.0281 10.8625V18.7687C39.0281 18.975 39.1719 19.1125 39.3875 19.1125C39.6031 19.1125 39.7469 18.975 39.7469 18.7687Z" fill="#344C36"/>
</g>
</svg>
