<svg width="42" height="42" viewBox="0 0 42 42" fill="none" xmlns="http://www.w3.org/2000/svg">
<g id="Group 8">
<path id="Line 3" d="M21.3334 0.140767C19.8606 0.140767 18.6667 1.33467 18.6667 2.80743C18.6667 4.28019 19.8606 5.4741 21.3334 5.4741C22.8061 5.4741 24 4.28019 24 2.80743C24 1.33467 22.8061 0.140767 21.3334 0.140767ZM21.3334 36.1408C19.8606 36.1408 18.6667 37.3347 18.6667 38.8074C18.6667 40.2802 19.8606 41.4741 21.3334 41.4741C22.8061 41.4741 24 40.2802 24 38.8074C24 37.3347 22.8061 36.1408 21.3334 36.1408ZM20.8334 2.80743L20.8334 38.8074L21.8334 38.8074L21.8334 2.80743L20.8334 2.80743Z" fill="white"/>
<path id="Line 4" d="M41.6667 21.1408C41.6667 19.668 40.4728 18.4741 39 18.4741C37.5272 18.4741 36.3333 19.668 36.3333 21.1408C36.3333 22.6135 37.5272 23.8074 39 23.8074C40.4728 23.8074 41.6667 22.6135 41.6667 21.1408ZM5.66667 21.1408C5.66667 19.668 4.47276 18.4741 3 18.4741C1.52724 18.4741 0.333332 19.668 0.333332 21.1408C0.333332 22.6135 1.52724 23.8074 3 23.8074C4.47276 23.8074 5.66667 22.6135 5.66667 21.1408ZM39 20.6408L3 20.6408L3 21.6408L39 21.6408L39 20.6408Z" fill="white"/>
<path id="Line 5" d="M35.8492 6.42954C34.8078 5.38814 33.1194 5.38814 32.078 6.42954C31.0366 7.47093 31.0366 9.15937 32.078 10.2008C33.1194 11.2422 34.8078 11.2422 35.8492 10.2008C36.8906 9.15938 36.8906 7.47094 35.8492 6.42954ZM10.3934 31.8854C9.352 30.844 7.66356 30.844 6.62216 31.8854C5.58076 32.9268 5.58076 34.6152 6.62216 35.6566C7.66356 36.698 9.352 36.698 10.3934 35.6566C11.4348 34.6152 11.4348 32.9268 10.3934 31.8854ZM33.6101 7.9616L8.15422 33.4174L8.86133 34.1246L34.3172 8.66871L33.6101 7.9616Z" fill="white"/>
<path id="Line 6" d="M35.3778 35.6566C36.4192 34.6152 36.4192 32.9267 35.3778 31.8853C34.3364 30.8439 32.648 30.8439 31.6066 31.8853C30.5652 32.9267 30.5652 34.6152 31.6066 35.6566C32.648 36.698 34.3364 36.698 35.3778 35.6566ZM9.92196 10.2007C10.9634 9.15934 10.9634 7.4709 9.92196 6.42951C8.88056 5.38811 7.19212 5.38811 6.15072 6.42951C5.10932 7.4709 5.10932 9.15934 6.15072 10.2007C7.19212 11.2421 8.88056 11.2421 9.92196 10.2007ZM33.8457 33.4174L8.38989 7.96157L7.68279 8.66868L33.1386 34.1245L33.8457 33.4174Z" fill="white"/>
</g>
</svg>
