<svg width="24" height="25" viewBox="0 0 24 25" fill="none" xmlns="http://www.w3.org/2000/svg">
<g id="Play" clip-path="url(#clip0_201_2201)">
<path id="Vector" d="M6.75 4.23876V20.7613C6.75245 20.8931 6.78962 21.022 6.85776 21.1349C6.9259 21.2478 7.0226 21.3407 7.13812 21.4043C7.25364 21.4679 7.38388 21.4999 7.51572 21.4972C7.64756 21.4944 7.77634 21.4569 7.88906 21.3884L21.3966 13.1272C21.5045 13.0619 21.5937 12.9699 21.6556 12.86C21.7175 12.7501 21.7501 12.6261 21.7501 12.5C21.7501 12.3739 21.7175 12.2499 21.6556 12.14C21.5937 12.0302 21.5045 11.9381 21.3966 11.8728L7.88906 3.61157C7.77634 3.54314 7.64756 3.50564 7.51572 3.50285C7.38388 3.50007 7.25364 3.53209 7.13812 3.5957C7.0226 3.6593 6.9259 3.75224 6.85776 3.86514C6.78962 3.97804 6.75245 4.10691 6.75 4.23876Z" stroke="#121212" stroke-width="2" stroke-linecap="round" stroke-linejoin="round"/>
</g>
<defs>
<clipPath id="clip0_201_2201">
<rect width="24" height="24" fill="white" transform="translate(0 0.5)"/>
</clipPath>
</defs>
</svg>
