<svg width="28" height="28" viewBox="0 0 28 28" fill="none" xmlns="http://www.w3.org/2000/svg">
<g id="ion:rocket">
<path id="Vector" d="M17.9842 8.57447C17.6465 8.57465 17.3194 8.69191 17.0584 8.90627C16.7975 9.12063 16.619 9.41882 16.5533 9.75005C16.4876 10.0813 16.5388 10.425 16.6981 10.7228C16.8574 11.0205 17.115 11.2538 17.4271 11.3828C17.7391 11.5119 18.0862 11.5288 18.4093 11.4306C18.7324 11.3325 19.0115 11.1253 19.199 10.8445C19.3865 10.5636 19.4708 10.2265 19.4375 9.89042C19.4043 9.55438 19.2556 9.24026 19.0167 9.00158C18.8812 8.86584 18.7203 8.75823 18.5431 8.68493C18.3659 8.61163 18.176 8.57409 17.9842 8.57447Z" fill="#FAAD1B"/>
<path id="Vector_2" d="M26.1101 2.73765C26.1098 2.73602 26.1098 2.73436 26.1101 2.73273C26.0638 2.53001 25.9618 2.34425 25.8156 2.19641C25.6694 2.04857 25.4848 1.94452 25.2826 1.89601C23.653 1.49844 21.0892 1.92226 18.2482 3.05976C15.3847 4.2082 12.7018 5.90351 10.8883 7.72023C10.3071 8.29843 9.76714 8.91664 9.27233 9.57031C8.05116 9.51562 6.97545 9.68953 6.06928 10.0849C2.91162 11.4745 2.00983 15.0309 1.76975 16.491C1.73501 16.6985 1.74861 16.9112 1.8095 17.1125C1.87039 17.3139 1.97691 17.4985 2.12079 17.6519C2.26467 17.8054 2.44202 17.9236 2.63904 17.9973C2.83606 18.071 3.04743 18.0983 3.2567 18.077H3.26381L6.78131 17.693C6.78569 17.7379 6.79061 17.7789 6.79444 17.8166C6.83961 18.2453 7.03076 18.6453 7.33584 18.9498L9.05248 20.6675C9.35647 20.973 9.75645 21.1644 10.1851 21.2095L10.3026 21.222L9.91983 24.7352V24.7423C9.90026 24.9315 9.9204 25.1227 9.97894 25.3037C10.0375 25.4846 10.1331 25.6514 10.2598 25.7933C10.3865 25.9352 10.5414 26.0491 10.7146 26.1278C10.8878 26.2064 11.0755 26.248 11.2657 26.25C11.3417 26.2501 11.4176 26.2439 11.4926 26.2314C12.961 25.9952 16.5157 25.1043 17.9015 21.9297C18.2936 21.0295 18.4669 19.9582 18.4183 18.7392C19.0749 18.2455 19.6954 17.7055 20.2749 17.1232C22.1031 15.3043 23.8039 12.6432 24.9403 9.82133C26.0718 7.01258 26.4978 4.42969 26.1101 2.73765ZM20.2552 12.3014C19.8059 12.7512 19.2332 13.0577 18.6097 13.1819C17.9861 13.3062 17.3397 13.2428 16.7522 12.9996C16.1648 12.7565 15.6626 12.3445 15.3093 11.8159C14.956 11.2873 14.7674 10.6658 14.7674 10.03C14.7674 9.39415 14.956 8.77263 15.3093 8.24402C15.6626 7.71541 16.1648 7.30346 16.7522 7.0603C17.3397 6.81714 17.9861 6.75369 18.6097 6.87798C19.2332 7.00226 19.8059 7.30869 20.2552 7.75851C20.5564 8.05517 20.7956 8.40877 20.9588 8.79872C21.1221 9.18868 21.2062 9.60721 21.2062 10.03C21.2062 10.4527 21.1221 10.8712 20.9588 11.2612C20.7956 11.6512 20.5564 12.0047 20.2552 12.3014Z" fill="#FAAD1B"/>
<path id="Vector_3" d="M8.85535 21.1335C8.64373 21.1072 8.42981 21.1591 8.25378 21.2795C7.90433 21.5185 7.55324 21.7547 7.19886 21.9849C6.48191 22.4509 5.62441 21.6328 6.05042 20.8912L6.71488 19.7428C6.80987 19.6038 6.86277 19.4404 6.86722 19.2721C6.87168 19.1038 6.8275 18.9379 6.73999 18.7941C6.65247 18.6503 6.52534 18.5348 6.37384 18.4614C6.22234 18.3881 6.05289 18.36 5.88581 18.3805C5.14835 18.4738 4.46286 18.8097 3.9373 19.3353C3.73714 19.536 3.12847 20.1453 2.80089 22.4667C2.70766 23.1336 2.64888 23.8047 2.6248 24.4776C2.62181 24.5944 2.64223 24.7106 2.68486 24.8193C2.72749 24.9281 2.79147 25.0272 2.87302 25.1109C2.95457 25.1945 3.05204 25.261 3.15969 25.3063C3.26734 25.3517 3.38298 25.3751 3.4998 25.375H3.52167C4.19506 25.3512 4.86678 25.2928 5.53417 25.2C7.85675 24.8719 8.46597 24.2627 8.66613 24.0625C9.1942 23.5367 9.5293 22.848 9.61714 22.108C9.64526 21.8778 9.58081 21.6458 9.43796 21.463C9.29512 21.2803 9.08556 21.1618 8.85535 21.1335Z" fill="#FAAD1B"/>
</g>
</svg>
