<svg width="26" height="26" viewBox="0 0 26 26" fill="none" xmlns="http://www.w3.org/2000/svg">
<g id="mdi:eye">
<path id="Vector" d="M13.0002 9.75C12.1382 9.75 11.3116 10.0924 10.7021 10.7019C10.0926 11.3114 9.75016 12.138 9.75016 13C9.75016 13.862 10.0926 14.6886 10.7021 15.2981C11.3116 15.9076 12.1382 16.25 13.0002 16.25C13.8621 16.25 14.6888 15.9076 15.2983 15.2981C15.9078 14.6886 16.2502 13.862 16.2502 13C16.2502 12.138 15.9078 11.3114 15.2983 10.7019C14.6888 10.0924 13.8621 9.75 13.0002 9.75ZM13.0002 18.4167C11.5636 18.4167 10.1858 17.846 9.17 16.8302C8.15418 15.8143 7.5835 14.4366 7.5835 13C7.5835 11.5634 8.15418 10.1857 9.17 9.16984C10.1858 8.15402 11.5636 7.58333 13.0002 7.58333C14.4368 7.58333 15.8145 8.15402 16.8303 9.16984C17.8461 10.1857 18.4168 11.5634 18.4168 13C18.4168 14.4366 17.8461 15.8143 16.8303 16.8302C15.8145 17.846 14.4368 18.4167 13.0002 18.4167ZM13.0002 4.875C7.5835 4.875 2.95766 8.24417 1.0835 13C2.95766 17.7558 7.5835 21.125 13.0002 21.125C18.4168 21.125 23.0427 17.7558 24.9168 13C23.0427 8.24417 18.4168 4.875 13.0002 4.875Z" fill="#FAAD1B"/>
</g>
</svg>
