<svg width="57" height="57" viewBox="0 0 57 57" fill="none" xmlns="http://www.w3.org/2000/svg">
<path id="Subtract" fill-rule="evenodd" clip-rule="evenodd" d="M28.0159 56.3642C34.5081 56.1018 39.7367 43.6367 39.7367 28.2982C39.7367 12.9603 34.5085 0.495492 28.0165 0.232316C28.1802 0.229501 28.3443 0.228088 28.5087 0.228088C44.0114 0.228088 56.5788 12.7955 56.5788 28.2983C56.5788 43.801 44.0114 56.3684 28.5087 56.3684C28.3441 56.3684 28.1798 56.367 28.0159 56.3642ZM27.2885 56.3424C12.3519 55.7036 0.438477 43.3922 0.438477 28.2983C0.438477 13.2046 12.3515 0.893287 27.2879 0.254156C20.94 0.893503 15.8771 13.2047 15.8771 28.2982C15.8771 43.3923 20.9404 55.7038 27.2885 56.3424Z" fill="#344C36"/>
</svg>
